<svg version="1.1" id="Layer_1" xmlns="http://www.w3.org/2000/svg" xmlns:xlink="http://www.w3.org/1999/xlink" x="0px" y="0px"
	 width="100%" viewBox="0 0 709 709" enable-background="new 0 0 709 709" xml:space="preserve">
<path fill="#000000" opacity="1.000000" stroke="none" 
	d="
M420.000000,710.000000 
	C280.000000,710.000000 140.500000,710.000000 1.000000,710.000000 
	C1.000000,473.666656 1.000000,237.333328 1.000000,1.000000 
	C237.333328,1.000000 473.666656,1.000000 710.000000,1.000000 
	C710.000000,237.333328 710.000000,473.666656 710.000000,710.000000 
	C613.500000,710.000000 517.000000,710.000000 420.000000,710.000000 
M491.647827,677.080994 
	C504.827911,670.511597 518.222717,664.335388 531.139404,657.283630 
	C552.254150,645.756348 571.542419,631.453369 589.134521,615.138245 
	C606.368164,599.155396 622.634094,582.181946 636.546631,563.055420 
	C653.591370,539.622681 668.043518,514.755188 678.860474,487.896027 
	C688.087097,464.986115 695.825439,441.532532 698.998657,416.915619 
	C701.411682,398.195587 703.351135,379.398499 704.843994,360.583527 
	C705.454590,352.887787 704.507446,345.042389 703.960022,337.286865 
	C703.090393,324.966187 703.042236,312.453186 700.693359,300.402252 
	C697.018005,281.546112 692.310120,262.833862 686.941772,244.380020 
	C680.618652,222.644196 670.871643,202.241577 659.833008,182.485703 
	C645.081238,156.084488 627.039490,132.062607 605.835266,110.598335 
	C594.252014,98.873001 581.718994,87.986473 568.896606,77.608368 
	C550.387695,62.627785 529.995789,50.369873 508.578217,40.004261 
	C484.557617,28.378838 459.743469,18.612871 433.378632,13.846915 
	C413.586426,10.269104 393.657104,6.670140 373.638489,5.335024 
	C351.881836,3.883995 329.974609,4.678530 308.212372,7.863034 
	C289.258148,10.636641 270.582092,14.358060 252.244949,19.892471 
	C225.166428,28.065145 199.545273,39.469189 175.249527,53.937237 
	C155.741577,65.554176 137.163315,78.590431 120.721657,94.149986 
	C106.672447,107.445450 93.771454,122.023659 81.045372,136.629395 
	C66.682632,153.113510 55.292454,171.738068 45.036510,191.003418 
	C33.320492,213.011429 24.185108,236.093719 17.483507,260.106659 
	C10.592500,284.798248 6.273136,310.022919 5.203753,335.576721 
	C4.194691,359.689148 4.934460,383.808319 8.800467,407.823456 
	C11.847596,426.751831 15.983455,445.321259 21.844864,463.531158 
	C29.285933,486.648560 39.194473,508.664124 51.275295,529.743286 
	C65.059975,553.795471 81.294785,576.114319 100.674118,595.817505 
	C114.066132,609.433350 128.716248,621.932617 143.623520,633.911194 
	C171.841171,656.585327 203.702499,672.976685 237.763702,684.937195 
	C265.319550,694.613464 293.607513,701.208252 322.903748,703.076904 
	C338.718445,704.085632 354.445343,706.099304 370.357758,704.082458 
	C386.153442,702.080505 402.095703,701.168945 417.847900,698.904236 
	C443.200012,695.259216 467.391754,687.301514 491.647827,677.080994 
z"/>
<path fill="#1ED760" opacity="1.000000" stroke="none" 
	d="
M491.322449,677.293091 
	C467.391754,687.301514 443.200012,695.259216 417.847900,698.904236 
	C402.095703,701.168945 386.153442,702.080505 370.357758,704.082458 
	C354.445343,706.099304 338.718445,704.085632 322.903748,703.076904 
	C293.607513,701.208252 265.319550,694.613464 237.763702,684.937195 
	C203.702499,672.976685 171.841171,656.585327 143.623520,633.911194 
	C128.716248,621.932617 114.066132,609.433350 100.674118,595.817505 
	C81.294785,576.114319 65.059975,553.795471 51.275295,529.743286 
	C39.194473,508.664124 29.285933,486.648560 21.844864,463.531158 
	C15.983455,445.321259 11.847596,426.751831 8.800467,407.823456 
	C4.934460,383.808319 4.194691,359.689148 5.203753,335.576721 
	C6.273136,310.022919 10.592500,284.798248 17.483507,260.106659 
	C24.185108,236.093719 33.320492,213.011429 45.036510,191.003418 
	C55.292454,171.738068 66.682632,153.113510 81.045372,136.629395 
	C93.771454,122.023659 106.672447,107.445450 120.721657,94.149986 
	C137.163315,78.590431 155.741577,65.554176 175.249527,53.937237 
	C199.545273,39.469189 225.166428,28.065145 252.244949,19.892471 
	C270.582092,14.358060 289.258148,10.636641 308.212372,7.863034 
	C329.974609,4.678530 351.881836,3.883995 373.638489,5.335024 
	C393.657104,6.670140 413.586426,10.269104 433.378632,13.846915 
	C459.743469,18.612871 484.557617,28.378838 508.578217,40.004261 
	C529.995789,50.369873 550.387695,62.627785 568.896606,77.608368 
	C581.718994,87.986473 594.252014,98.873001 605.835266,110.598335 
	C627.039490,132.062607 645.081238,156.084488 659.833008,182.485703 
	C670.871643,202.241577 680.618652,222.644196 686.941772,244.380020 
	C692.310120,262.833862 697.018005,281.546112 700.693359,300.402252 
	C703.042236,312.453186 703.090393,324.966187 703.960022,337.286865 
	C704.507446,345.042389 705.454590,352.887787 704.843994,360.583527 
	C703.351135,379.398499 701.411682,398.195587 698.998657,416.915619 
	C695.825439,441.532532 688.087097,464.986115 678.860474,487.896027 
	C668.043518,514.755188 653.591370,539.622681 636.546631,563.055420 
	C622.634094,582.181946 606.368164,599.155396 589.134521,615.138245 
	C571.542419,631.453369 552.254150,645.756348 531.139404,657.283630 
	C518.222717,664.335388 504.827911,670.511597 491.322449,677.293091 
M603.581116,269.110992 
	C600.528809,266.337219 597.821777,263.001068 594.368286,260.880798 
	C571.543030,246.867447 547.426208,235.363113 521.983398,227.117096 
	C499.677795,219.887878 477.115265,213.181046 454.275940,207.946289 
	C432.015015,202.844116 409.329956,199.404556 386.696411,196.180695 
	C371.078583,193.956100 355.253571,192.813812 339.480713,192.153656 
	C323.470490,191.483551 307.391235,191.497818 291.377258,192.117828 
	C269.615082,192.960403 247.859634,194.339188 226.153061,196.119339 
	C213.269012,197.175949 200.351593,198.786652 187.688583,201.336960 
	C171.569611,204.583298 155.693848,209.036316 139.711349,212.961456 
	C120.352119,217.715897 109.980011,236.969986 117.184425,255.288620 
	C122.546280,268.922211 138.427277,278.152771 153.185013,274.092560 
	C173.819046,268.415619 194.555725,263.143250 215.925507,260.921082 
	C234.709625,258.967712 253.453049,255.933731 272.281189,255.269989 
	C295.007507,254.468826 317.819855,255.258026 340.565063,256.134338 
	C356.172791,256.735657 371.766296,258.333923 387.298279,260.087555 
	C401.277252,261.665833 415.320007,263.329315 429.057404,266.256378 
	C454.888641,271.760254 480.510986,278.125397 505.309875,287.556183 
	C524.138672,294.716583 542.439575,302.819611 559.884766,312.912048 
	C567.125061,317.100616 574.597412,320.340118 583.557373,318.100647 
	C594.722473,315.310028 602.578003,308.943634 606.958130,298.454681 
	C611.141479,288.436768 609.406738,278.853699 603.581116,269.110992 
M497.586212,351.910797 
	C495.922699,351.236542 494.285797,350.485107 492.591553,349.899841 
	C473.341095,343.250153 454.293701,335.903381 434.770935,330.179047 
	C410.772278,323.142334 386.236938,318.191681 361.246399,315.925507 
	C347.003113,314.633942 332.781311,312.530365 318.516663,312.192688 
	C299.605438,311.745056 280.650787,312.378235 261.736145,313.103241 
	C249.910767,313.556519 237.959473,314.129211 226.356415,316.246796 
	C204.382233,320.257111 182.576401,325.233582 160.779617,330.158264 
	C143.141434,334.143341 131.764816,353.450348 142.631989,370.354919 
	C147.407532,377.783569 158.708069,383.853607 167.229568,382.014069 
	C183.803741,378.436279 200.193909,373.764374 216.911438,371.153809 
	C237.641617,367.916656 258.579163,365.265198 279.515839,364.314880 
	C297.981262,363.476746 316.598145,364.885651 335.092438,366.130310 
	C348.978699,367.064911 362.930298,368.519257 376.577881,371.161926 
	C397.047821,375.125580 417.530670,379.452789 437.547729,385.222412 
	C466.168274,393.471985 493.456787,405.216431 518.910217,420.943024 
	C526.601379,425.695068 534.602905,427.864105 543.642578,424.061157 
	C558.283142,417.901825 565.050964,400.239624 556.172058,386.465698 
	C551.683655,379.502747 544.856384,375.620667 537.847229,372.008881 
	C524.736938,365.253143 511.517120,358.709991 497.586212,351.910797 
M497.165070,518.323181 
	C500.234955,517.295166 503.577454,516.740845 506.328003,515.157959 
	C518.870056,507.940491 521.752625,490.889099 507.871704,481.531158 
	C483.441284,465.061157 456.460602,453.860352 428.527710,444.632233 
	C403.578613,436.389832 378.028076,431.116913 352.049438,428.203033 
	C334.353790,426.218231 316.466888,425.824341 298.650085,425.094604 
	C292.239441,424.832031 285.781616,425.628632 279.349243,426.008850 
	C268.477539,426.651398 257.549286,426.848236 246.753281,428.139465 
	C231.162781,430.004211 215.625732,432.426788 200.148849,435.092957 
	C189.070190,437.001434 177.992935,439.210205 167.164108,442.190063 
	C157.410294,444.874115 150.931549,456.609924 153.230911,465.506195 
	C155.999512,476.217957 166.936035,483.726013 176.955368,481.947083 
	C197.868149,478.234039 218.725906,474.115479 239.741608,471.109802 
	C254.866547,468.946655 270.197845,467.442841 285.459869,467.222321 
	C304.147003,466.952301 322.878784,467.985565 341.550690,469.122162 
	C352.820312,469.808167 364.245758,470.775391 375.188568,473.361786 
	C394.360931,477.893341 413.484772,482.980560 432.112762,489.345703 
	C445.313324,493.856323 457.600159,500.998016 470.416229,506.692108 
	C479.167023,510.580017 486.408081,517.732910 497.165070,518.323181 
z"/>
<path fill="#000000" opacity="1.000000" stroke="none" 
	d="
M603.759766,269.433289 
	C609.406738,278.853699 611.141479,288.436768 606.958130,298.454681 
	C602.578003,308.943634 594.722473,315.310028 583.557373,318.100647 
	C574.597412,320.340118 567.125061,317.100616 559.884766,312.912048 
	C542.439575,302.819611 524.138672,294.716583 505.309875,287.556183 
	C480.510986,278.125397 454.888641,271.760254 429.057404,266.256378 
	C415.320007,263.329315 401.277252,261.665833 387.298279,260.087555 
	C371.766296,258.333923 356.172791,256.735657 340.565063,256.134338 
	C317.819855,255.258026 295.007507,254.468826 272.281189,255.269989 
	C253.453049,255.933731 234.709625,258.967712 215.925507,260.921082 
	C194.555725,263.143250 173.819046,268.415619 153.185013,274.092560 
	C138.427277,278.152771 122.546280,268.922211 117.184425,255.288620 
	C109.980011,236.969986 120.352119,217.715897 139.711349,212.961456 
	C155.693848,209.036316 171.569611,204.583298 187.688583,201.336960 
	C200.351593,198.786652 213.269012,197.175949 226.153061,196.119339 
	C247.859634,194.339188 269.615082,192.960403 291.377258,192.117828 
	C307.391235,191.497818 323.470490,191.483551 339.480713,192.153656 
	C355.253571,192.813812 371.078583,193.956100 386.696411,196.180695 
	C409.329956,199.404556 432.015015,202.844116 454.275940,207.946289 
	C477.115265,213.181046 499.677795,219.887878 521.983398,227.117096 
	C547.426208,235.363113 571.543030,246.867447 594.368286,260.880798 
	C597.821777,263.001068 600.528809,266.337219 603.759766,269.433289 
z"/>
<path fill="#000000" opacity="1.000000" stroke="none" 
	d="
M497.964539,351.994598 
	C511.517120,358.709991 524.736938,365.253143 537.847229,372.008881 
	C544.856384,375.620667 551.683655,379.502747 556.172058,386.465698 
	C565.050964,400.239624 558.283142,417.901825 543.642578,424.061157 
	C534.602905,427.864105 526.601379,425.695068 518.910217,420.943024 
	C493.456787,405.216431 466.168274,393.471985 437.547729,385.222412 
	C417.530670,379.452789 397.047821,375.125580 376.577881,371.161926 
	C362.930298,368.519257 348.978699,367.064911 335.092438,366.130310 
	C316.598145,364.885651 297.981262,363.476746 279.515839,364.314880 
	C258.579163,365.265198 237.641617,367.916656 216.911438,371.153809 
	C200.193909,373.764374 183.803741,378.436279 167.229568,382.014069 
	C158.708069,383.853607 147.407532,377.783569 142.631989,370.354919 
	C131.764816,353.450348 143.141434,334.143341 160.779617,330.158264 
	C182.576401,325.233582 204.382233,320.257111 226.356415,316.246796 
	C237.959473,314.129211 249.910767,313.556519 261.736145,313.103241 
	C280.650787,312.378235 299.605438,311.745056 318.516663,312.192688 
	C332.781311,312.530365 347.003113,314.633942 361.246399,315.925507 
	C386.236938,318.191681 410.772278,323.142334 434.770935,330.179047 
	C454.293701,335.903381 473.341095,343.250153 492.591553,349.899841 
	C494.285797,350.485107 495.922699,351.236542 497.964539,351.994598 
z"/>
<path fill="#000000" opacity="1.000000" stroke="none" 
	d="
M496.821808,518.533447 
	C486.408081,517.732910 479.167023,510.580017 470.416229,506.692108 
	C457.600159,500.998016 445.313324,493.856323 432.112762,489.345703 
	C413.484772,482.980560 394.360931,477.893341 375.188568,473.361786 
	C364.245758,470.775391 352.820312,469.808167 341.550690,469.122162 
	C322.878784,467.985565 304.147003,466.952301 285.459869,467.222321 
	C270.197845,467.442841 254.866547,468.946655 239.741608,471.109802 
	C218.725906,474.115479 197.868149,478.234039 176.955368,481.947083 
	C166.936035,483.726013 155.999512,476.217957 153.230911,465.506195 
	C150.931549,456.609924 157.410294,444.874115 167.164108,442.190063 
	C177.992935,439.210205 189.070190,437.001434 200.148849,435.092957 
	C215.625732,432.426788 231.162781,430.004211 246.753281,428.139465 
	C257.549286,426.848236 268.477539,426.651398 279.349243,426.008850 
	C285.781616,425.628632 292.239441,424.832031 298.650085,425.094604 
	C316.466888,425.824341 334.353790,426.218231 352.049438,428.203033 
	C378.028076,431.116913 403.578613,436.389832 428.527710,444.632233 
	C456.460602,453.860352 483.441284,465.061157 507.871704,481.531158 
	C521.752625,490.889099 518.870056,507.940491 506.328003,515.157959 
	C503.577454,516.740845 500.234955,517.295166 496.821808,518.533447 
z"/>
</svg>