<svg version="1.1" id="Layer_1" xmlns="http://www.w3.org/2000/svg" xmlns:xlink="http://www.w3.org/1999/xlink" x="0px" y="0px"
	 width="100%" viewBox="0 0 72 72" enable-background="new 0 0 72 72" xml:space="preserve">
<path fill="#FFFFFF" opacity="1.000000" stroke="none" 
	d="
M38.000000,73.000000 
	C25.333334,73.000000 13.166667,73.000000 1.000000,73.000000 
	C1.000000,49.000000 1.000000,25.000000 1.000000,1.000000 
	C25.000000,1.000000 49.000000,1.000000 73.000000,1.000000 
	C73.000000,25.000000 73.000000,49.000000 73.000000,73.000000 
	C61.500000,73.000000 50.000000,73.000000 38.000000,73.000000 
M37.908634,28.467361 
	C34.691887,28.277428 31.475140,28.087492 28.256399,27.897440 
	C28.256399,39.610039 28.256399,50.671852 28.256399,61.746544 
	C31.919912,61.746544 35.321022,61.746544 39.000370,61.746544 
	C39.000370,54.871471 39.154049,48.241096 38.948292,41.621895 
	C38.802372,36.927719 42.411201,35.546810 45.419701,35.441071 
	C48.471779,35.333797 51.378872,37.145145 51.105530,41.660118 
	C50.698463,48.383991 50.999989,55.150757 50.999989,61.672058 
	C55.063866,61.672058 58.467976,61.672058 62.465469,61.672058 
	C61.962112,53.607052 61.516068,45.898247 60.988945,38.194988 
	C60.577675,32.184704 56.068058,27.553749 50.128368,28.173334 
	C46.025249,28.601341 42.092285,30.660612 38.120510,31.978563 
	C38.104256,31.644674 38.048546,30.500151 37.908634,28.467361 
M23.000000,43.502697 
	C23.000000,38.402378 23.000000,33.302059 23.000000,28.286636 
	C19.020750,28.286636 15.614305,28.286636 12.283596,28.286636 
	C12.283596,39.647850 12.283596,50.720249 12.283596,61.713043 
	C15.979870,61.713043 19.386330,61.713043 23.000000,61.713043 
	C23.000000,55.785400 23.000000,50.142990 23.000000,43.502697 
M16.698538,12.001657 
	C13.315598,13.103075 10.959150,15.529505 12.257649,18.883678 
	C12.975469,20.737888 16.106096,22.672895 18.151007,22.674980 
	C19.765327,22.676630 22.367327,20.003311 22.788000,18.127241 
	C23.596088,14.523445 21.166275,12.425525 16.698538,12.001657 
z"/>
<path fill="#000000" opacity="1.000000" stroke="none" 
	d="
M37.950733,28.911493 
	C38.048546,30.500151 38.104256,31.644674 38.120510,31.978563 
	C42.092285,30.660612 46.025249,28.601341 50.128368,28.173334 
	C56.068058,27.553749 60.577675,32.184704 60.988945,38.194988 
	C61.516068,45.898247 61.962112,53.607052 62.465469,61.672058 
	C58.467976,61.672058 55.063866,61.672058 50.999989,61.672058 
	C50.999989,55.150757 50.698463,48.383991 51.105530,41.660118 
	C51.378872,37.145145 48.471779,35.333797 45.419701,35.441071 
	C42.411201,35.546810 38.802372,36.927719 38.948292,41.621895 
	C39.154049,48.241096 39.000370,54.871471 39.000370,61.746544 
	C35.321022,61.746544 31.919912,61.746544 28.256399,61.746544 
	C28.256399,50.671852 28.256399,39.610039 28.256399,27.897440 
	C31.475140,28.087492 34.691887,28.277428 37.950733,28.911493 
z"/>
<path fill="#000000" opacity="1.000000" stroke="none" 
	d="
M23.000000,44.001640 
	C23.000000,50.142990 23.000000,55.785400 23.000000,61.713043 
	C19.386330,61.713043 15.979870,61.713043 12.283596,61.713043 
	C12.283596,50.720249 12.283596,39.647850 12.283596,28.286636 
	C15.614305,28.286636 19.020750,28.286636 23.000000,28.286636 
	C23.000000,33.302059 23.000000,38.402378 23.000000,44.001640 
z"/>
<path fill="#000000" opacity="1.000000" stroke="none" 
	d="
M17.099270,12.000948 
	C21.166275,12.425525 23.596088,14.523445 22.788000,18.127241 
	C22.367327,20.003311 19.765327,22.676630 18.151007,22.674980 
	C16.106096,22.672895 12.975469,20.737888 12.257649,18.883678 
	C10.959150,15.529505 13.315598,13.103075 17.099270,12.000948 
z"/>
</svg>